<?xml version="1.0" encoding="UTF-8"?>
<svg width="300px" height="75px" viewBox="0 0 300 75" version="1.1" xmlns="http://www.w3.org/2000/svg" xmlns:xlink="http://www.w3.org/1999/xlink">
    <!-- Generator: Sketch 55.2 (78181) - https://sketchapp.com -->
    <title>Artboard</title>
    <desc>Created with Sketch.</desc>
    <g id="Artboard" stroke="none" stroke-width="1" fill="none" fill-rule="evenodd">
        <g id="Group-2" transform="translate(1.000000, 0.000000)">
            <g id="Group">
                <g id="Group-4" transform="translate(0.363281, 0.023438)">
                    <path d="M68,31.2862716 C68,26.1576894 63.8915833,22 58.8246027,22 L9.17473023,22 C4.10774966,22 0,26.1576894 0,31.2862716 L0,42.2854464 C0,42.3367592 0.00667059054,42.3860465 0.0073376496,42.4380345 C0.00667059054,42.4893473 0,42.5379595 0,42.5899475 L0,57.4915979 C0,62.6208552 4.10774966,66.7778695 9.17473023,66.7778695 L10.3000589,66.7778695 C15.3670394,66.7778695 19.4747891,62.6208552 19.4747891,57.4915979 L19.4747891,48.4767442 L48.5252109,48.4767442 L48.5252109,57.7137284 C48.5252109,62.8429857 52.6329606,67 57.6999411,67 L58.8252698,67 C63.8922503,67 68,62.8429857 68,57.7137284 L68,42.8114029 C68,42.7222806 67.9893271,42.6365341 67.9866588,42.548087 C67.98866,42.4596399 68,42.3745686 68,42.2847712 L68,31.2862716 L68,31.2862716 Z" id="Path" stroke="#001E7E" stroke-width="2"></path>
                    <path d="M15.8218042,35.0330847 L14.6778483,35.0330847 L14.6778483,33.9659423 C14.6778483,32.3279273 13.2552009,31 11.4996525,31 C9.74479915,31 8.32215169,32.3279273 8.32215169,33.9659423 L8.32215169,35.0330847 L7.1781958,35.0330847 C5.42264745,35.0330847 4,36.3616607 4,38.0003244 C4,39.6370418 5.42264745,40.9656179 7.1781958,40.9656179 L8.32215169,40.9656179 L8.32215169,42.0340577 C8.32215169,43.6720727 9.74479915,45 11.4996525,45 C13.2552009,45 14.6778483,43.6720727 14.6778483,42.0340577 L14.6778483,40.9656179 L15.8218042,40.9656179 C17.5773525,40.9656179 19,39.6370418 19,38.0003244 C19,36.3616607 17.5773525,35.0330847 15.8218042,35.0330847 Z" id="Path" stroke="#001E7E" stroke-width="2"></path>
                    <circle id="Oval" stroke="#001E7E" stroke-width="2" cx="56" cy="32" r="2"></circle>
                    <circle id="Oval" stroke="#001E7E" stroke-width="2" cx="56" cy="43" r="2"></circle>
                    <circle id="Oval" stroke="#001E7E" stroke-width="2" cx="62" cy="37" r="2"></circle>
                    <circle id="Oval" stroke="#001E7E" stroke-width="2" cx="51" cy="37" r="2"></circle>
                    <path d="M35,16.0660278 C35,11.0223849 35,5.97809804 35,0.934455102 C35,-0.311485034 33,-0.311485034 33,0.934455102 C33,5.97809804 33,11.0223849 33,16.0660278 C33,17.3113241 35,17.3113241 35,16.0660278 L35,16.0660278 Z" id="Path" fill="#012179" fill-rule="nonzero"></path>
                    <path d="M38.9894907,16 C36.3298302,16 33.6701698,16 31.0105093,16 C30.4594449,16 30,16.4003182 30,16.8791761 C30,18.626392 30,20.373608 30,22.1208239 C30,22.5996818 30.4594449,23 31.0105093,23 C33.6701698,23 36.3298302,23 38.9894907,23 C39.5405551,23 40,22.5996818 40,22.1208239 C40,20.373608 40,18.626392 40,16.8791761 C40,15.7450389 37.9789814,15.7450389 37.9789814,16.8791761 C37.9789814,18.626392 37.9789814,20.373608 37.9789814,22.1208239 C38.3158178,21.8277652 38.6526543,21.5347065 38.9894907,21.2416478 C36.3298302,21.2416478 33.6701698,21.2416478 31.0105093,21.2416478 C31.3473457,21.5347065 31.6841822,21.8277652 32.0210186,22.1208239 C32.0210186,20.373608 32.0210186,18.626392 32.0210186,16.8791761 C31.6841822,17.1722348 31.3473457,17.4652935 31.0105093,17.7583522 C33.6701698,17.7583522 36.3298302,17.7583522 38.9894907,17.7583522 C40.292374,17.7583522 40.292374,16 38.9894907,16 Z" id="Path" fill="#012179" fill-rule="nonzero"></path>
                    <path d="M31,38 C31,38.5521433 30.5774223,39 30.0564443,39 L27.9435557,39 C27.4225777,39 27,38.5521433 27,38 L27,38 C27,37.4478567 27.4225777,37 27.9435557,37 L30.0564443,37 C30.5774223,37.0006398 31,37.4478567 31,38 L31,38 Z" id="Path" fill="#012179" fill-rule="nonzero"></path>
                    <path d="M40,38 C40,38.5521433 39.5774223,39 39.0564443,39 L36.9435557,39 C36.4225777,39 36,38.5521433 36,38 L36,38 C36,37.4478567 36.4225777,37 36.9435557,37 L39.0564443,37 C39.5774223,37.0006398 40,37.4478567 40,38 L40,38 Z" id="Path" fill="#012179" fill-rule="nonzero"></path>
                </g>
            </g>
            <text id="Games" font-family="Lato-Black, Lato" font-size="30" font-weight="700" fill="#012179">
                <tspan x="167.363281" y="58.0234375">Games</tspan>
            </text>
        </g>
        <text id="Platzi" font-family="ABeeZee-Regular, ABeeZee" font-size="35" font-weight="normal" fill="#8840DA">
            <tspan x="75" y="57">Platzi</tspan>
        </text>
    </g>
</svg>